<?xml version="1.0" encoding="utf-8"?>
<!-- Generator: Adobe Illustrator 17.1.0, SVG Export Plug-In . SVG Version: 6.00 Build 0)  -->
<!DOCTYPE svg PUBLIC "-//W3C//DTD SVG 1.1//EN" "http://www.w3.org/Graphics/SVG/1.1/DTD/svg11.dtd">
<svg version="1.1" id="Laag_1" xmlns="http://www.w3.org/2000/svg" xmlns:xlink="http://www.w3.org/1999/xlink" x="0px" y="0px"
	 viewBox="0 0 841.9 595.3" enable-background="new 0 0 841.9 595.3" xml:space="preserve">
<g id="Laag_1_1_" display="none">
</g>
<g id="Laag_6">
	<ellipse fill="#E4231F" cx="196.5" cy="250.8" rx="10.8" ry="11.1"/>
</g>
<g id="Laag_7">
	<polygon fill="#E4231F" points="187.7,266.5 189.5,291.4 187.7,332.9 204.6,332.9 202.6,291.4 204.6,266.5 	"/>
</g>
<g>
	<path fill="#E4231F" d="M247.4,327.6c4.9,0,8.9-1,11.9-2.9c3-1.9,4.5-4.7,4.5-8.3c0-2.1-0.5-4-1.7-5.4c-1.2-1.5-2.6-2.7-4.4-3.7
		c-1.8-1.1-3.7-1.9-6-2.7c-2.2-0.7-4.4-1.4-6.4-2c-2.7-0.7-5.2-1.7-7.8-2.7c-2.6-1.1-4.8-2.3-6.8-4c-2-1.6-3.6-3.5-4.8-5.9
		c-1.2-2.3-1.8-5.1-1.8-8.3c0-6.2,2.2-11.2,6.8-14.9c4.5-3.7,10.8-5.7,19-5.7c6.9,0,12.4,1.5,16.3,4.4c4.1,2.9,6,6.8,6,11.9
		c0,2.8-0.6,4.9-1.8,6.5c-1.2,1.6-3,2.3-5.1,2.3c-1.9,0-3.6-0.6-4.9-1.8c-1.3-1.2-1.9-2.8-1.9-4.7c0-1.6,0.4-3.1,1.3-4.5
		c0.9-1.3,1.9-2.3,3.4-2.9c-1.3-1.8-3-3.1-5-4c-2-0.9-4.6-1.3-7.8-1.3c-10.4,0-15.5,3.6-15.5,11c0,1.9,0.3,3.6,1.1,4.9
		c0.6,1.3,1.7,2.5,3.1,3.4c1.4,1,3.1,1.8,5.1,2.6c2,0.7,4.4,1.5,7,2.3c3,1,5.9,1.9,8.6,3c2.8,1.1,5.4,2.3,7.7,3.8
		c2.3,1.6,4.2,3.5,5.6,5.9c1.4,2.3,2.1,5.2,2.1,8.6s-0.6,6.3-2,9c-1.4,2.6-3.3,4.8-5.9,6.5c-2.5,1.8-5.4,3.1-9,4.1
		c-3.4,1-7.3,1.4-11.4,1.4c-7.7,0-13.8-1.5-18.5-4.6c-4.6-3.1-6.9-7.3-6.9-12.6c0-2.8,0.6-4.9,1.9-6.5s3-2.3,5.3-2.3
		c2,0,3.8,0.6,5.2,1.8c1.4,1.2,2.1,2.8,2.1,4.8c0,1.6-0.4,3.2-1.4,4.7c-0.9,1.5-2,2.6-3.3,3.2c1.2,1.7,3.1,3.1,6,4.2
		C240.4,327.1,243.7,327.6,247.4,327.6z"/>
	<path fill="#E4231F" d="M305.2,298.2c0,6.3,0.9,11.5,2.6,15.7c1.7,4.1,4.2,6.9,7.3,8.6s6.6,2.6,10.5,2.6c4.2,0,7.9-0.9,11.2-2.6
		s6.3-4,9-6.9l4.2,3.1c-1.6,2-3.2,4.1-5,5.9c-1.8,1.8-3.7,3.4-6,4.8c-2.2,1.4-4.8,2.5-7.5,3.2c-2.8,0.7-5.9,1.2-9.2,1.2
		c-6,0-11.2-1.3-15.8-3.8s-8-6.3-10.5-11.2c-1.3-2.7-2.2-5.7-2.9-8.9c-0.6-3.2-0.9-6.7-0.9-10.6c0-12.2,2.8-21.6,8.3-28.2
		c5.5-6.6,13.1-9.9,22.7-9.9c8.9,0,15.7,2.8,20.4,8.2c4.7,5.4,7.2,13,7.2,22.7c0,0.9,0,1.6-0.1,2.3c0,0.7-0.2,1.9-0.3,3.7
		C350.4,298.2,305.2,298.2,305.2,298.2z M322.4,268.2c-10.4,0-16,7.9-17.1,23.7h32.4v-4.3c0-6.2-1.3-11-4-14.4
		C331.2,269.9,327.4,268.2,322.4,268.2z"/>
	<path fill="#E4231F" d="M380.8,298.2c0,6.3,0.9,11.5,2.6,15.7c1.7,4.1,4.2,6.9,7.3,8.6c3.1,1.7,6.6,2.6,10.5,2.6
		c4.2,0,7.9-0.9,11.2-2.6c3.3-1.7,6.3-4,9-6.9l4.2,3.1c-1.6,2-3.2,4.1-5,5.9s-3.7,3.4-6,4.8c-2.2,1.4-4.8,2.5-7.5,3.2
		c-2.8,0.7-5.9,1.2-9.2,1.2c-6,0-11.2-1.3-15.8-3.8c-4.6-2.6-8-6.3-10.5-11.2c-1.3-2.7-2.2-5.7-2.9-8.9c-0.6-3.2-0.9-6.7-0.9-10.6
		c0-12.2,2.8-21.6,8.3-28.2c5.6-6.6,13.1-9.9,22.7-9.9c8.9,0,15.7,2.8,20.4,8.2c4.7,5.4,7.2,13,7.2,22.7c0,0.9,0,1.6-0.1,2.3
		c0,0.7-0.2,1.9-0.3,3.7C426,298.2,380.8,298.2,380.8,298.2z M398,268.2c-10.4,0-16,7.9-17.1,23.7h32.4v-4.3c0-6.2-1.3-11-4-14.4
		C406.7,269.9,402.9,268.2,398,268.2z"/>
	<path fill="#E4231F" d="M492.7,324.5l-20-26.9l-9.8,8.3v18.6l9.9,2.5v5.3h-32.5V327l9.9-2.5v-85.4l-9.9-2.5v-5.3h22.5v68.4
		l27.5-29.6l-8.5-2.5v-5.3h27.9v5.3l-9.4,2.5l-19.4,20.2l25.7,34.6l6.8,2.2v5.3h-28.3v-5.3L492.7,324.5z"/>
	<path fill="#E4231F" d="M534.2,270.2l-9.9-2.5v-5.3h18.6l2.9,12.9h0.5c2.5-4.4,5.9-7.9,10-10.5c4.2-2.6,8.6-3.8,13.3-3.8
		c3.6,0,6.8,0.6,9.5,2c2.7,1.3,4.7,3,6,5c1.4,2.1,2.5,5,3.4,8.5c2.8-4.9,6.3-8.8,10.8-11.4c4.5-2.7,9.1-4.1,14.1-4.1
		c3.4,0,6.5,0.6,9.3,2c2.8,1.4,4.9,3.2,6.3,5.6c0.7,1.2,1.4,2.7,1.9,4.4c0.5,1.7,1,3.8,1.3,6.4s0.5,5.6,0.7,9
		c0.1,3.4,0.2,7.5,0.2,12.2v23.9l9.9,2.5v5.3h-31.2V327l8.6-2.5v-28.8c0-5.6-0.2-9.7-0.4-12.5c-0.3-2.8-0.9-5-1.6-6.5
		c-2.1-4.3-5.8-6.3-10.9-6.3c-2.2,0-4.4,0.4-6.4,1.3s-3.8,2-5.4,3.5c-1.9,1.7-3.3,3.7-4.2,6c-0.9,2.3-1.5,5.2-1.6,8.9v34.6l8.6,2.5
		v5.3h-29.9v-5.3l8.6-2.5v-28.8c0-5.6-0.2-9.7-0.4-12.5c-0.2-2.8-0.9-5-1.6-6.5c-2.1-4.3-5.8-6.3-10.9-6.3c-2.2,0-4.4,0.4-6.4,1.3
		c-2,0.9-3.8,2-5.4,3.5c-1.9,1.7-3.3,3.7-4.2,6c-0.9,2.3-1.5,5.2-1.6,8.9v34.6l8.6,2.5v5.3h-31.2v-5.3l9.9-2.5v-54.6h0.2
		L534.2,270.2L534.2,270.2z"/>
	<path fill="#E4231F" d="M670,298.2c0,6.3,0.9,11.5,2.6,15.7c1.7,4.1,4.2,6.9,7.3,8.6c3.1,1.7,6.6,2.6,10.5,2.6
		c4.2,0,7.9-0.9,11.2-2.6c3.3-1.7,6.3-4,9-6.9l4.2,3.1c-1.6,2-3.2,4.1-5,5.9s-3.7,3.4-6,4.8c-2.2,1.4-4.8,2.5-7.5,3.2
		c-2.8,0.7-5.9,1.2-9.2,1.2c-6,0-11.2-1.3-15.8-3.8c-4.6-2.5-8-6.3-10.5-11.2c-1.3-2.7-2.2-5.7-2.9-8.9c-0.7-3.2-0.9-6.7-0.9-10.6
		c0-12.2,2.8-21.6,8.3-28.2c5.6-6.6,13.1-9.9,22.7-9.9c8.9,0,15.7,2.8,20.4,8.2c4.8,5.4,7.2,13,7.2,22.7c0,0.9,0,1.6-0.1,2.3
		c0,0.7-0.2,1.9-0.3,3.7C715.2,298.2,670,298.2,670,298.2z M687.2,268.2c-10.4,0-16,7.9-17.1,23.7h32.4v-4.3c0-6.2-1.3-11-4-14.4
		C695.8,269.9,692.1,268.2,687.2,268.2z"/>
</g>
<ellipse display="none" fill="none" stroke="#E4231F" stroke-miterlimit="10" cx="273.5" cy="1316.8" rx="43.4" ry="44"/>
<path fill="#E4231F" d="M259.7,339.4c-3.8,0.9-8.1,1.3-12.7,1.1c-7.4-0.2-14.1-1.7-19.8-4.8c-9.3,6.5-20.6,10.4-33.1,10.4
	c-32.8,0-59.3-26.4-59.3-58.9s26.6-60.8,59.3-58.9c20.4,1.2,38.4,12.1,49.1,27c2.1-0.4,4.5-0.6,6.8-0.6c2.6-0.1,5,0.1,7.3,0.4
	c-11.8-22.5-35.7-37.8-63-37.8c-39.2,0-71,31.3-71,69.8s31.8,69.8,71,69.8c9.3,0,18-1.7,26.2-4.9l20.6,25.9
	c23.2,1.2,35.3-16.4,35.3-16.4l-3-4L259.7,339.4z"/>
<g>
	<path fill="#E4231F" d="M744.7,255c0,3.2-1.2,5.7-3.6,7.4s-5.9,2.6-10.6,2.6c-4.2,0-7.6-0.8-10-2.2s-4-3.8-4.6-6.8l6.7-1.1
		c0.5,1.8,1.3,3,2.6,3.8s3.1,1.2,5.5,1.2c4.8,0,7.2-1.5,7.2-4.4c0-0.9-0.3-1.7-0.8-2.3s-1.3-1.1-2.3-1.5s-2.9-0.9-5.8-1.5
		c-2.5-0.6-4.2-1-5.2-1.4s-1.8-0.8-2.6-1.2s-1.4-1.1-2-1.7s-1-1.5-1.3-2.4s-0.5-1.9-0.5-3.1c0-3,1.1-5.3,3.4-6.9s5.5-2.4,9.8-2.4
		c4.1,0,7.2,0.6,9.2,1.9s3.4,3.4,4,6.4l-6.7,0.9c-0.3-1.4-1-2.5-2.1-3.2s-2.6-1.1-4.5-1.1c-4.2,0-6.3,1.3-6.3,3.9
		c0,0.9,0.2,1.6,0.7,2.1s1.1,1,2,1.4s2.6,0.9,5.3,1.4c3.2,0.7,5.4,1.3,6.8,1.9s2.4,1.2,3.2,2s1.4,1.7,1.8,2.7S744.7,253.6,744.7,255
		z"/>
	<path fill="#E4231F" d="M777.2,264.5v-20c0-0.5,0-0.9,0-1.4s0.1-2.4,0.2-5.8c-1.1,4.2-1.9,7.1-2.5,8.8l-6,18.4h-4.9l-6-18.4
		l-2.5-8.8c0.2,3.6,0.3,6,0.3,7.2v20h-6.1v-33h9.3l5.9,18.5l0.5,1.8l1.1,4.4l1.5-5.3l6.1-19.4h9.2v33H777.2z"/>
</g>
</svg>
